# Blender v2.74 (sub 0) OBJ File: ''
# www.blender.org
mtllib oil-paintings-with-frame.mtl
o Rahmen
v 5.945000 -3.100000 0.100000
v 5.945000 -3.100000 -0.100000
v 5.945000 3.100000 -0.100000
v 5.945000 3.100000 0.100000
v -0.255000 3.100000 0.100000
v -0.255000 3.100000 -0.100000
v -0.255000 -3.100000 -0.100000
v -0.255000 -3.100000 0.100000
v -0.255000 -3.100000 -0.100000
v -0.255000 3.100000 -0.100000
v 5.945000 3.100000 -0.100000
v 5.945000 -3.100000 -0.100000
v -0.255000 -3.100000 0.100000
v -0.255000 -3.100000 -0.100000
v 5.945000 -3.100000 -0.100000
v 5.945000 -3.100000 0.100000
v 5.945000 3.100000 0.100000
v 5.945000 3.100000 -0.100000
v -0.255000 3.100000 -0.100000
v -0.255000 3.100000 0.100000
v 5.885000 -3.100000 0.100000
v 5.885000 -3.100000 -0.100000
v 5.885000 3.100000 -0.100000
v 5.885000 3.100000 0.100000
v -0.195000 3.100000 0.100000
v -0.195000 3.100000 -0.100000
v -0.195000 -3.100000 -0.100000
v -0.195000 -3.100000 0.100000
v -0.255000 -3.100000 -0.040000
v -0.255000 3.100000 -0.040000
v 5.945000 3.100000 -0.040000
v 5.945000 -3.100000 -0.040000
v -0.255000 -3.040000 0.100000
v -0.255000 -3.040000 -0.100000
v 5.945000 -3.040000 -0.100000
v 5.945000 -3.040000 0.100000
v 5.945000 3.040000 0.100000
v 5.945000 3.040000 -0.100000
v -0.255000 3.040000 -0.100000
v -0.255000 3.040000 0.100000
v 5.915000 -3.100000 0.100000
v 5.915000 -3.100000 -0.100000
v 5.915000 3.100000 -0.100000
v 5.915000 3.100000 0.100000
v -0.225000 3.100000 0.100000
v -0.225000 3.100000 -0.100000
v -0.225000 -3.100000 -0.100000
v -0.225000 -3.100000 0.100000
v -0.255000 -3.100000 -0.070000
v -0.255000 3.100000 -0.070000
v 5.945000 3.100000 -0.070000
v 5.945000 -3.100000 -0.070000
v -0.255000 -3.070000 0.100000
v -0.255000 -3.070000 -0.100000
v 5.945000 -3.070000 -0.100000
v 5.945000 -3.070000 0.100000
v 5.945000 3.070000 0.100000
v 5.945000 3.070000 -0.100000
v -0.255000 3.070000 -0.100000
v -0.255000 3.070000 0.100000
vt 0.000000 1.000000
vt 0.000000 0.000000
vt 1.000000 0.000000
vt 1.000000 1.000000
vn 1.000000 0.000000 0.000000
vn -1.000000 0.000000 0.000000
vn 0.000000 0.000000 -1.000000
vn 0.000000 -1.000000 0.000000
vn 0.000000 1.000000 0.000000
vn 0.000000 -0.000000 1.000000
usemtl Rahmen
s 1
f 1/1/1 2/2/1 3/3/1 4/4/1
f 5/1/2 6/2/2 7/3/2 8/4/2
f 9/1/3 10/2/3 11/3/3 12/4/3
f 13/1/4 14/2/4 15/3/4 16/4/4
f 17/1/5 18/2/5 19/3/5 20/4/5
f 24/4/2 23/3/2 22/2/2 21/1/2
f 28/4/1 27/3/1 26/2/1 25/1/1
f 32/4/6 31/3/6 30/2/6 29/1/6
f 36/4/5 35/3/5 34/2/5 33/1/5
f 40/4/4 39/3/4 38/2/4 37/1/4
f 21/2/4 22/2/4 42/2/4 41/2/4
f 41/2/4 42/2/4 2/2/4 1/2/4
f 22/2/3 23/2/3 43/2/3 42/2/3
f 42/2/3 43/2/3 3/2/3 2/2/3
f 23/2/5 24/2/5 44/2/5 43/2/5
f 43/2/5 44/2/5 4/2/5 3/2/5
f 24/2/6 21/2/6 41/2/6 44/2/6
f 44/2/6 41/2/6 1/2/6 4/2/6
f 25/2/5 26/2/5 46/2/5 45/2/5
f 45/2/5 46/2/5 6/2/5 5/2/5
f 26/2/3 27/2/3 47/2/3 46/2/3
f 46/2/3 47/2/3 7/2/3 6/2/3
f 27/2/4 28/2/4 48/2/4 47/2/4
f 47/2/4 48/2/4 8/2/4 7/2/4
f 28/2/6 25/2/6 45/2/6 48/2/6
f 48/2/6 45/2/6 5/2/6 8/2/6
f 29/2/2 30/2/2 50/2/2 49/2/2
f 49/2/2 50/2/2 10/2/2 9/2/2
f 30/2/5 31/2/5 51/2/5 50/2/5
f 50/2/5 51/2/5 11/2/5 10/2/5
f 31/2/1 32/2/1 52/2/1 51/2/1
f 51/2/1 52/2/1 12/2/1 11/2/1
f 32/2/4 29/2/4 49/2/4 52/2/4
f 52/2/4 49/2/4 9/2/4 12/2/4
f 33/2/2 34/2/2 54/2/2 53/2/2
f 53/2/2 54/2/2 14/2/2 13/2/2
f 34/2/3 35/2/3 55/2/3 54/2/3
f 54/2/3 55/2/3 15/2/3 14/2/3
f 35/2/1 36/2/1 56/2/1 55/2/1
f 55/2/1 56/2/1 16/2/1 15/2/1
f 36/2/6 33/2/6 53/2/6 56/2/6
f 56/2/6 53/2/6 13/2/6 16/2/6
f 37/2/1 38/2/1 58/2/1 57/2/1
f 57/2/1 58/2/1 18/2/1 17/2/1
f 38/2/3 39/2/3 59/2/3 58/2/3
f 58/2/3 59/2/3 19/2/3 18/2/3
f 39/2/2 40/2/2 60/2/2 59/2/2
f 59/2/2 60/2/2 20/2/2 19/2/2
f 40/2/6 37/2/6 57/2/6 60/2/6
f 60/2/6 57/2/6 17/2/6 20/2/6
o Leinwand2
v 5.838900 -3.000000 0.090000
v 5.838900 3.000000 0.090000
v 5.838900 -3.000000 -0.090000
v 5.838900 3.000000 -0.090000
v -0.161100 3.000000 0.090000
v -0.161100 -3.000000 0.090000
v -0.161100 3.000000 -0.090000
v -0.161100 -3.000000 -0.090000
vt 0.000000 1.000000
vt 0.000000 0.000000
vt 1.000000 0.000000
vt 1.000000 1.000000
vn 1.000000 0.000000 0.000000
vn -1.000000 0.000000 0.000000
vn 0.000000 -0.000000 1.000000
vn 0.000000 0.000000 -1.000000
vn 0.000000 -1.000000 0.000000
vn 0.000000 1.000000 0.000000
usemtl Weiss
s 1
f 61/5/7 63/6/7 64/7/7 62/8/7
f 65/5/8 67/6/8 68/7/8 66/8/8
f 65/5/9 66/6/9 61/7/9 62/8/9
f 68/5/10 67/6/10 64/7/10 63/8/10
f 66/5/11 68/6/11 63/7/11 61/8/11
f 62/5/12 64/6/12 67/7/12 65/8/12
o Leinwand
v 5.838900 -3.000000 0.090800
v 5.838900 3.000000 0.090800
v 5.838900 -3.000000 0.089800
v 5.838900 3.000000 0.089800
v -0.161100 3.000000 0.090800
v -0.161100 -3.000000 0.090800
v -0.161100 3.000000 0.089800
v -0.161100 -3.000000 0.089800
v -0.146958 -2.985858 0.110800
v -0.146958 2.985858 0.110800
v 5.824758 -2.985858 0.110800
v 5.824758 2.985858 0.110800
v -0.160216 2.999116 0.099550
v -0.160216 -2.999116 0.099550
v -0.157564 2.996464 0.105800
v -0.157564 -2.996464 0.105800
v -0.153145 2.992045 0.109550
v -0.153145 -2.992045 0.109550
v 5.838017 -2.999116 0.099550
v 5.835364 -2.996464 0.105800
v 5.830945 -2.992045 0.109550
v 5.838017 2.999116 0.099550
v 5.835364 2.996464 0.105800
v 5.830945 2.992045 0.109550
vt 0.000000 1.000000
vt 0.000000 0.000000
vt 1.000000 0.000000
vt 1.000000 1.000000
vt 0.002208 0.997792
vt 0.002208 0.002208
vt 0.997792 0.002208
vt 0.997792 0.997792
vt 0.000439 0.000439
vt 0.000439 0.999561
vt 0.001176 0.001176
vt 0.001176 0.998824
vt 0.999561 0.000439
vt 0.998824 0.001176
vt 0.999561 0.999561
vt 0.998824 0.998824
vn 0.998700 -0.000000 0.050300
vn 1.000000 0.000000 0.000000
vn -0.998700 0.000000 0.050300
vn -1.000000 0.000000 0.000000
vn -0.049900 0.049900 0.997500
vn -0.049900 -0.049900 0.997500
vn 0.049900 -0.049900 0.997500
vn 0.049900 0.049900 0.997500
vn 0.000000 0.000000 -1.000000
vn -0.000000 -0.998700 0.050300
vn 0.000000 -1.000000 0.000000
vn 0.000000 0.998700 0.050300
vn 0.000000 1.000000 0.000000
vn -0.968700 -0.000000 0.248300
vn -0.805600 -0.000000 0.592500
vn -0.229300 -0.229300 0.945900
vn -0.229300 0.229300 0.945900
vn -0.000000 -0.968700 0.248400
vn -0.000000 -0.805500 0.592600
vn 0.229300 -0.229300 0.945900
vn 0.968700 0.000000 0.248300
vn 0.805500 0.000000 0.592600
vn 0.229300 0.229300 0.945900
vn -0.000000 0.968700 0.248400
vn -0.000000 0.805500 0.592600
usemtl Bild_Schlafzimmer
s 1
f 69/9/13 71/10/14 72/11/14 70/12/13
f 73/9/15 75/10/16 76/11/16 74/12/15
f 78/13/17 77/14/18 79/15/19 80/16/20
f 76/9/21 75/10/21 72/11/21 71/12/21
f 74/9/22 76/10/23 71/11/23 69/12/22
f 70/9/24 72/10/25 75/11/25 73/12/24
f 73/10/15 74/10/15 82/10/26 81/10/26
f 81/9/26 82/10/26 84/17/27 83/18/27
f 83/18/27 84/17/27 86/19/28 85/20/29
f 85/20/29 86/19/28 77/14/18 78/13/17
f 74/10/22 69/10/22 87/10/30 82/10/30
f 82/10/30 87/11/30 88/21/31 84/17/31
f 84/17/31 88/21/31 89/22/32 86/19/28
f 86/19/28 89/22/32 79/15/19 77/14/18
f 69/10/13 70/10/13 90/10/33 87/10/33
f 87/11/33 90/12/33 91/23/34 88/21/34
f 88/21/34 91/23/34 92/24/35 89/22/32
f 89/22/32 92/24/35 80/16/20 79/15/19
f 70/10/24 73/10/24 81/10/36 90/10/36
f 90/12/36 81/9/36 83/18/37 91/23/37
f 91/23/37 83/18/37 85/20/29 92/24/35
f 92/24/35 85/20/29 78/13/17 80/16/20
o Leinwand1
v -1.629200 -3.500000 0.000500
v -1.629200 3.500000 0.000500
v -1.629200 -3.500000 -0.000500
v -1.629200 3.500000 -0.000500
v -6.629200 3.500000 0.000500
v -6.629200 -3.500000 0.000500
v -6.629200 3.500000 -0.000500
v -6.629200 -3.500000 -0.000500
v -6.615058 -3.485858 0.020500
v -6.615058 3.485858 0.020500
v -1.643342 -3.485858 0.020500
v -1.643342 3.485858 0.020500
v -6.628316 3.499116 0.009250
v -6.628316 -3.499116 0.009250
v -6.625665 3.496464 0.015500
v -6.625665 -3.496464 0.015500
v -6.621245 3.492045 0.019250
v -6.621245 -3.492045 0.019250
v -1.630084 -3.499116 0.009250
v -1.632735 -3.496464 0.015500
v -1.637155 -3.492045 0.019250
v -1.630084 3.499116 0.009250
v -1.632735 3.496464 0.015500
v -1.637155 3.492045 0.019250
vt 0.000000 1.000000
vt 0.000000 0.000000
vt 1.000000 0.000000
vt 1.000000 1.000000
vt 0.002560 0.998172
vt 0.002560 0.001828
vt 0.997440 0.001828
vt 0.997440 0.998172
vt -0.000093 1.000067
vt -0.000093 -0.000067
vt 0.000437 0.000312
vt 0.000437 0.999688
vt 0.001322 0.000944
vt 0.001322 0.999056
vt 1.000093 -0.000067
vt 0.999563 0.000312
vt 0.998678 0.000944
vt 1.000093 1.000067
vt 0.999563 0.999688
vt 0.998678 0.999056
vn 0.998700 0.000000 0.050400
vn 1.000000 0.000000 0.000000
vn -0.998700 -0.000000 0.050400
vn -1.000000 0.000000 0.000000
vn -0.049900 0.049900 0.997500
vn -0.049900 -0.049900 0.997500
vn 0.049900 -0.049900 0.997500
vn 0.049900 0.049900 0.997500
vn 0.000000 0.000000 -1.000000
vn -0.000000 -0.998700 0.050300
vn 0.000000 -1.000000 0.000000
vn 0.000000 0.998700 0.050300
vn 0.000000 1.000000 0.000000
vn -0.968700 -0.000000 0.248300
vn -0.805600 -0.000000 0.592500
vn -0.229300 -0.229400 0.945900
vn -0.229300 0.229400 0.945900
vn 0.000000 -0.968700 0.248400
vn 0.000000 -0.805500 0.592500
vn 0.229300 -0.229400 0.945900
vn 0.968700 0.000000 0.248300
vn 0.805600 0.000000 0.592500
vn 0.229300 0.229400 0.945900
vn -0.000000 0.968700 0.248400
vn -0.000000 0.805500 0.592500
usemtl Bild_Wohnzimmer
s 1
f 93/25/38 95/26/39 96/27/39 94/28/38
f 97/25/40 99/26/41 100/27/41 98/28/40
f 102/29/42 101/30/43 103/31/44 104/32/45
f 100/25/46 99/26/46 96/27/46 95/28/46
f 98/25/47 100/26/48 95/27/48 93/28/47
f 94/25/49 96/26/50 99/27/50 97/28/49
f 97/26/40 98/26/40 106/26/51 105/26/51
f 105/33/51 106/34/51 108/35/52 107/36/52
f 107/36/52 108/35/52 110/37/53 109/38/54
f 109/38/54 110/37/53 101/30/43 102/29/42
f 98/26/47 93/26/47 111/26/55 106/26/55
f 106/34/55 111/39/55 112/40/56 108/35/56
f 108/35/56 112/40/56 113/41/57 110/37/53
f 110/37/53 113/41/57 103/31/44 101/30/43
f 93/26/38 94/26/38 114/26/58 111/26/58
f 111/39/58 114/42/58 115/43/59 112/40/59
f 112/40/59 115/43/59 116/44/60 113/41/57
f 113/41/57 116/44/60 104/32/45 103/31/44
f 94/26/49 97/26/49 105/26/61 114/26/61
f 114/42/61 105/33/61 107/36/62 115/43/62
f 115/43/62 107/36/62 109/38/54 116/44/60
f 116/44/60 109/38/54 102/29/42 104/32/45
o Leinwand3
v -1.629200 -3.500000 -0.000600
v -1.629200 3.500000 -0.000600
v -1.629200 -3.500000 -0.180600
v -1.629200 3.500000 -0.180600
v -6.629200 3.500000 -0.000600
v -6.629200 -3.500000 -0.000600
v -6.629200 3.500000 -0.180600
v -6.629200 -3.500000 -0.180600
vt 0.000000 1.000000
vt 0.000000 0.000000
vt 1.000000 0.000000
vt 1.000000 1.000000
vn 1.000000 0.000000 0.000000
vn -1.000000 0.000000 0.000000
vn 0.000000 -0.000000 1.000000
vn 0.000000 0.000000 -1.000000
vn 0.000000 -1.000000 0.000000
vn 0.000000 1.000000 0.000000
usemtl Weiss
s 1
f 117/45/63 119/46/63 120/47/63 118/48/63
f 121/45/64 123/46/64 124/47/64 122/48/64
f 121/45/65 122/46/65 117/47/65 118/48/65
f 124/45/66 123/46/66 120/47/66 119/48/66
f 122/45/67 124/46/67 119/47/67 117/48/67
f 118/45/68 120/46/68 123/47/68 121/48/68
